<svg xmlns="http://www.w3.org/2000/svg" xmlns:xlink="http://www.w3.org/1999/xlink" width="800" zoomAndPan="magnify" viewBox="0 0 600 599.999999" height="800" preserveAspectRatio="xMidYMid meet" version="1.0"><path fill="#af0000" d="M 567.15625 404.246094 C 567.15625 404.246094 540.027344 332.652344 479.738281 351.492188 C 479.738281 351.492188 451.097656 361.039062 416.183594 350.992188 C 415.175781 350.738281 414.171875 350.488281 413.167969 350.238281 C 413.167969 350.238281 385.03125 337.175781 351.621094 369.078125 C 351.621094 369.078125 301.378906 417.308594 330.269531 496.691406 C 330.269531 496.691406 361.167969 577.578125 430 579.585938 C 430 579.585938 520.179688 587.625 555.097656 518.542969 C 590.015625 449.464844 567.15625 404.246094 567.15625 404.246094 Z M 567.15625 404.246094 " fill-opacity="1" fill-rule="nonzero"/><path fill="#ffffff" d="M 529.976562 417.558594 C 529.976562 417.558594 542.539062 362.292969 494.808594 382.894531 C 494.808594 382.894531 443.816406 402.988281 457.632812 430.121094 C 457.632812 430.121094 471.195312 443.433594 493.300781 443.9375 C 493.554688 443.9375 516.914062 450.214844 529.976562 417.558594 Z M 529.976562 417.558594 " fill-opacity="1" fill-rule="nonzero"/><path fill="#ffffff" d="M 483.503906 358.527344 C 483.503906 358.527344 452.105469 388.167969 421.960938 386.160156 C 421.960938 386.160156 357.148438 384.148438 381.765625 361.539062 C 381.765625 361.539062 396.335938 351.996094 402.617188 354.003906 C 402.617188 354.003906 393.824219 401.230469 483.503906 358.527344 Z M 483.503906 358.527344 " fill-opacity="1" fill-rule="nonzero"/><path fill="#af0000" d="M 266.714844 421.832031 C 266.714844 421.832031 268.976562 345.210938 206.171875 339.433594 C 206.171875 339.433594 176.28125 337.175781 147.644531 314.566406 C 146.890625 314.0625 146.136719 313.308594 145.382812 312.554688 C 145.382812 312.554688 124.53125 289.695312 81.324219 306.277344 C 81.324219 306.277344 16.511719 331.394531 12.492188 416.054688 C 12.492188 416.054688 9.980469 502.46875 72.785156 530.855469 C 72.785156 530.855469 153.167969 572.804688 211.953125 522.3125 C 270.734375 471.820312 266.714844 421.832031 266.714844 421.832031 Z M 266.714844 421.832031 " fill-opacity="1" fill-rule="nonzero"/><path fill="#ffffff" d="M 227.527344 419.820312 C 227.527344 419.820312 260.433594 373.597656 208.183594 374.351562 C 208.183594 374.351562 153.421875 373.347656 155.933594 403.742188 C 155.933594 403.742188 163.46875 421.078125 183.566406 430.121094 C 183.566406 430.121094 202.90625 444.941406 227.527344 419.820312 Z M 227.527344 419.820312 " fill-opacity="1" fill-rule="nonzero"/><path fill="#ffffff" d="M 207.179688 347.472656 C 207.179688 347.472656 166.734375 362.796875 139.855469 349.484375 C 139.855469 349.484375 80.820312 322.855469 112.222656 311.550781 C 112.222656 311.550781 129.054688 308.285156 134.328125 312.554688 C 134.078125 312.304688 107.953125 352.496094 207.179688 347.472656 Z M 207.179688 347.472656 " fill-opacity="1" fill-rule="nonzero"/><path fill="#af0000" d="M 443.5625 367.820312 C 443.5625 367.820312 452.859375 200.265625 346.347656 113.347656 C 346.347656 113.347656 429.246094 197.503906 512.144531 156.558594 C 512.144531 156.558594 519.929688 154.796875 554.847656 132.945312 C 554.847656 132.945312 520.433594 133.695312 474.460938 82.703125 C 474.460938 82.703125 407.390625 12.363281 346.347656 45.019531 C 346.347656 45.019531 319.46875 67.628906 301.882812 68.382812 C 301.882812 68.382812 401.613281 72.652344 422.460938 114.355469 C 422.460938 114.355469 358.90625 66.625 301.882812 83.457031 C 301.882812 83.457031 261.691406 279.398438 165.476562 339.6875 L 184.820312 342.953125 C 184.820312 342.953125 258.425781 271.859375 282.039062 194.738281 C 282.039062 194.738281 305.148438 116.113281 307.410156 101.039062 C 307.410156 101.039062 361.671875 125.910156 411.910156 229.65625 C 411.910156 229.65625 436.277344 299.746094 434.519531 367.570312 L 443.5625 367.570312 Z M 443.5625 367.820312 " fill-opacity="1" fill-rule="nonzero"/></svg>