<svg xmlns="http://www.w3.org/2000/svg" xmlns:xlink="http://www.w3.org/1999/xlink" width="800" zoomAndPan="magnify" viewBox="0 0 600 599.999999" height="800" preserveAspectRatio="xMidYMid meet" version="1.0"><path fill="#af0000" d="M 567.113281 404.238281 C 567.113281 404.238281 539.984375 332.644531 479.699219 351.484375 C 479.699219 351.484375 451.0625 361.03125 416.148438 350.984375 C 415.144531 350.730469 414.140625 350.480469 413.136719 350.230469 C 413.136719 350.230469 385.003906 337.167969 351.59375 369.070312 C 351.59375 369.070312 301.355469 417.300781 330.242188 496.679688 C 330.242188 496.679688 361.140625 577.566406 429.964844 579.578125 C 429.964844 579.578125 520.140625 587.613281 555.054688 518.535156 C 589.96875 449.453125 567.113281 404.238281 567.113281 404.238281 Z M 567.113281 404.238281 " fill-opacity="1" fill-rule="nonzero"/><path fill="#f3fffa" d="M 529.9375 417.550781 C 529.9375 417.550781 542.496094 362.289062 494.769531 382.886719 C 494.769531 382.886719 443.78125 402.980469 457.59375 430.113281 C 457.59375 430.113281 471.160156 443.425781 493.261719 443.925781 C 493.515625 443.925781 516.875 450.207031 529.9375 417.550781 Z M 529.9375 417.550781 " fill-opacity="1" fill-rule="nonzero"/><path fill="#fffdff" d="M 483.46875 358.519531 C 483.46875 358.519531 452.070312 388.160156 421.925781 386.152344 C 421.925781 386.152344 357.121094 384.140625 381.738281 361.535156 C 381.738281 361.535156 396.304688 351.988281 402.585938 353.996094 C 402.585938 353.996094 393.792969 401.222656 483.46875 358.519531 Z M 483.46875 358.519531 " fill-opacity="1" fill-rule="nonzero"/><path fill="#af0000" d="M 266.695312 421.820312 C 266.695312 421.820312 268.953125 345.207031 206.15625 339.429688 C 206.15625 339.429688 176.265625 337.167969 147.632812 314.558594 C 146.878906 314.058594 146.125 313.304688 145.371094 312.550781 C 145.371094 312.550781 124.523438 289.691406 81.320312 306.269531 C 81.320312 306.269531 16.511719 331.390625 12.492188 416.042969 C 12.492188 416.042969 9.980469 502.457031 72.777344 530.84375 C 72.777344 530.84375 153.15625 572.792969 211.933594 522.300781 C 270.710938 471.8125 266.695312 421.820312 266.695312 421.820312 Z M 266.695312 421.820312 " fill-opacity="1" fill-rule="nonzero"/><path fill="#f3fffa" d="M 227.507812 419.8125 C 227.507812 419.8125 260.414062 373.589844 208.167969 374.34375 C 208.167969 374.34375 153.410156 373.339844 155.921875 403.734375 C 155.921875 403.734375 163.457031 421.070312 183.550781 430.113281 C 183.550781 430.113281 202.890625 444.933594 227.507812 419.8125 Z M 227.507812 419.8125 " fill-opacity="1" fill-rule="nonzero"/><path fill="#fffdff" d="M 207.164062 347.464844 C 207.164062 347.464844 166.722656 362.789062 139.84375 349.476562 C 139.84375 349.476562 80.816406 322.847656 112.214844 311.542969 C 112.214844 311.542969 129.042969 308.277344 134.320312 312.550781 C 134.066406 312.296875 107.945312 352.492188 207.164062 347.464844 Z M 207.164062 347.464844 " fill-opacity="1" fill-rule="nonzero"/><path fill="#739802" d="M 443.527344 367.8125 C 443.527344 367.8125 452.824219 200.261719 346.320312 113.347656 C 346.320312 113.347656 429.210938 197.5 512.101562 156.554688 C 512.101562 156.554688 519.890625 154.796875 554.804688 132.941406 C 554.804688 132.941406 520.390625 133.695312 474.425781 82.699219 C 474.425781 82.699219 407.359375 12.363281 346.320312 45.019531 C 346.320312 45.019531 319.441406 67.628906 301.859375 68.382812 C 301.859375 68.382812 401.582031 72.652344 422.429688 114.351562 C 422.429688 114.351562 358.878906 66.625 301.859375 83.453125 C 301.859375 83.453125 261.667969 279.390625 165.464844 339.679688 L 184.808594 342.945312 C 184.808594 342.945312 258.40625 271.855469 282.015625 194.738281 C 282.015625 194.738281 305.125 116.109375 307.386719 101.039062 C 307.386719 101.039062 361.640625 125.90625 411.878906 229.652344 C 411.878906 229.652344 436.242188 299.738281 434.484375 367.5625 L 443.527344 367.5625 Z M 443.527344 367.8125 " fill-opacity="1" fill-rule="nonzero"/></svg>